<svg xmlns="http://www.w3.org/2000/svg" viewBox="0 0 64 64" role="img" aria-label="Apple Music">
  <defs>
    <linearGradient id="apple-music-gradient" x1="9" y1="7" x2="55" y2="58" gradientUnits="userSpaceOnUse">
      <stop stop-color="#fa57c1"/>
      <stop offset="0.48" stop-color="#f63865"/>
      <stop offset="1" stop-color="#fa233b"/>
    </linearGradient>
  </defs>
  <rect width="64" height="64" rx="14" fill="url(#apple-music-gradient)"/>
  <path fill="#fff" d="M45.8 14.8c.8-.1 1.5.5 1.5 1.3v28.1c0 4-3.3 7.2-7.3 7.2h-.6c-3.5 0-6.3-2.3-6.3-5.2 0-3.1 3-5.5 6.8-5.5 1.3 0 2.4.3 3.4.8V25.7l-18.8 3.8v18.4c0 4-3.3 7.2-7.3 7.2h-.6c-3.5 0-6.3-2.3-6.3-5.2 0-3.1 3-5.5 6.8-5.5 1.3 0 2.4.3 3.4.8V21.8c0-.7.5-1.2 1.1-1.4l24.2-5.6Zm-2.5 4.9-18.8 4.2v2.6l18.8-3.8v-3Z"/>
</svg>
